# 3ds Max Wavefront OBJ Exporter v0.97b - (c)2007 guruware
# File Created: 18.05.2016 16:02:50

mtllib SnowMan.mtl

#
# object SnowMan
#

v  0.2285 0.0675 -0.3729
v  0.0400 0.0675 -0.3942
v  0.0816 0.0600 -0.1605
v  0.3378 0.0675 -0.1733
v  -0.2268 0.0797 -0.3662
v  -0.1858 0.0721 -0.1545
v  -0.0275 0.0721 -0.1837
v  -0.0783 0.0797 -0.4265
v  0.3210 0.0675 -0.0065
v  0.1269 0.0450 -0.0026
v  0.1495 0.0598 0.1630
v  0.3786 0.0823 0.1805
v  -0.1752 0.0600 0.0309
v  -0.1547 0.0599 0.1763
v  0.0009 0.0450 0.1524
v  0.0000 0.0450 -0.0000
v  0.2285 -0.0308 -0.3729
v  0.0400 -0.0308 -0.3942
v  -0.0784 -0.0307 -0.4269
v  -0.2269 -0.0307 -0.3666
v  -0.3023 0.0675 -0.1242
v  -0.2737 0.0675 -0.2565
v  -0.2737 -0.0308 -0.2565
v  -0.3023 -0.0308 -0.1242
v  -0.3913 0.0675 0.2167
v  -0.4085 0.0675 0.0830
v  -0.4085 -0.0308 0.0830
v  -0.3913 -0.0308 0.2167
v  -0.1360 -0.0310 0.4069
v  -0.1360 0.0673 0.4069
v  -0.2195 0.0534 0.3191
v  -0.2195 -0.0449 0.3191
v  0.1670 -0.0308 0.4442
v  0.1658 0.0823 0.4433
v  0.0075 0.0675 0.3904
v  0.0075 -0.0308 0.3904
v  0.2856 0.0823 0.3470
v  0.2868 -0.0308 0.3479
v  0.3798 -0.0308 0.1814
v  0.3210 -0.0308 -0.0065
v  0.3378 -0.0308 -0.1733
v  -0.1547 -0.1391 0.1763
v  0.0009 -0.1390 0.1524
v  0.1507 -0.1390 0.1639
v  0.0000 -0.1390 -0.0000
v  -0.1752 -0.1390 0.0309
v  -0.1859 -0.1390 -0.1549
v  -0.0276 -0.1390 -0.1841
v  0.1269 -0.1390 -0.0026
v  0.0816 -0.1390 -0.1605
v  0.1155 0.2824 -0.1155
v  -0.0000 0.3084 -0.1414
v  0.0000 0.3670 -0.0000
v  0.1414 0.3084 -0.0000
v  -0.1155 0.2824 -0.1155
v  -0.1414 0.3084 0.0000
v  0.0000 0.3084 0.1414
v  0.1155 0.2824 0.1155
v  -0.1155 0.2824 0.1155
v  -0.0000 0.1670 -0.2000
v  0.1414 0.1670 -0.1414
v  -0.1414 0.1670 -0.1414
v  -0.2000 0.1670 0.0000
v  -0.1414 0.1670 0.1414
v  0.0000 0.1670 0.2000
v  0.1414 0.1670 0.1414
v  0.2000 0.1670 -0.0000
v  0.1124 0.0662 -0.1124
v  -0.0000 0.0530 -0.1468
v  -0.1124 0.0662 -0.1124
v  -0.1468 0.0530 0.0000
v  -0.1124 0.0662 0.1124
v  0.0000 0.0530 0.1468
v  0.1124 0.0662 0.1124
v  0.1468 0.0530 -0.0000
v  0.0850 0.5036 -0.0850
v  -0.0000 0.5227 -0.1041
v  0.0000 0.5659 -0.0000
v  0.1041 0.5227 -0.0000
v  -0.0850 0.5036 -0.0850
v  -0.1041 0.5227 0.0000
v  0.0000 0.5227 0.1041
v  0.0850 0.5036 0.0850
v  -0.0850 0.5036 0.0850
v  -0.0000 0.4186 -0.1472
v  0.1041 0.4186 -0.1041
v  -0.1041 0.4186 -0.1041
v  -0.1472 0.4186 0.0000
v  -0.1041 0.4186 0.1041
v  0.0000 0.4186 0.1472
v  0.1041 0.4186 0.1041
v  0.1472 0.4186 -0.0000
v  0.0850 0.3336 -0.0850
v  -0.0000 0.3145 -0.1041
v  -0.0850 0.3336 -0.0850
v  -0.1041 0.3145 0.0000
v  -0.0850 0.3336 0.0850
v  0.0000 0.3145 0.1041
v  0.0850 0.3336 0.0850
v  0.1041 0.3145 -0.0000
v  0.0000 0.2714 -0.0000
v  0.0635 0.6778 -0.0635
v  -0.0000 0.6921 -0.0777
v  0.0000 0.7243 -0.0000
v  0.0777 0.6921 -0.0000
v  -0.0635 0.6778 -0.0635
v  -0.0777 0.6921 0.0000
v  0.0000 0.6921 0.0777
v  0.0635 0.6778 0.0635
v  -0.0635 0.6778 0.0635
v  -0.0000 0.6144 -0.1099
v  0.0777 0.6144 -0.0777
v  -0.0777 0.6144 -0.0777
v  -0.1099 0.6144 0.0000
v  -0.0777 0.6144 0.0777
v  0.0000 0.6144 0.1099
v  0.0777 0.6144 0.0777
v  0.1099 0.6144 -0.0000
v  0.0635 0.5509 -0.0635
v  -0.0000 0.5366 -0.0777
v  -0.0635 0.5509 -0.0635
v  -0.0777 0.5366 0.0000
v  -0.0635 0.5509 0.0635
v  0.0000 0.5366 0.0777
v  0.0635 0.5509 0.0635
v  0.0777 0.5366 -0.0000
v  0.0000 0.5044 -0.0000
v  0.2419 0.6002 -0.0000
v  0.0831 0.6002 0.0313
v  0.0831 0.5781 0.0221
v  0.0831 0.6002 -0.0000
v  0.0831 0.5690 -0.0000
v  0.0831 0.5781 -0.0221
v  0.0831 0.6002 -0.0312
v  0.0831 0.6223 -0.0221
v  0.0831 0.6315 -0.0000
v  0.0831 0.6223 0.0221
v  0.0188 0.4267 -0.1235
v  -0.0198 0.4207 -0.1100
v  -0.0440 0.4268 -0.1571
v  0.0071 0.4347 -0.1750
v  0.0044 0.4622 -0.1184
v  -0.0119 0.4818 -0.1684
v  -0.0051 0.4835 -0.2099
v  -0.0205 0.5293 -0.1928
v  -0.0568 0.4758 -0.1936
v  -0.0361 0.5311 -0.2370
v  -0.0701 0.4810 -0.2377
v  -0.0216 0.4882 -0.2530
v  -0.0433 0.4944 -0.3093
v  -0.0564 0.5335 -0.2947
v  -0.0874 0.4878 -0.2953
v  -0.0549 0.4977 -0.3398
v  -0.0674 0.5348 -0.3259
v  -0.0969 0.4915 -0.3266
v  0.1414 0.5493 -0.2489
v  0.1323 0.5520 -0.2726
v  0.1244 0.5755 -0.2639
v  0.1330 0.5745 -0.2396
v  -0.0767 0.5655 -0.2343
v  -0.0597 0.5905 -0.2340
v  -0.0657 0.5913 -0.2511
v  -0.0819 0.5674 -0.2515
v  -0.0719 0.5190 -0.3872
v  -0.0764 0.5322 -0.3823
v  -0.0869 0.5167 -0.3825
v  -0.0814 0.4890 -0.4077
v  -0.0911 0.4876 -0.4046
v  -0.0843 0.4977 -0.4045
v  0.0188 0.4267 0.1235
v  0.0071 0.4347 0.1750
v  -0.0440 0.4268 0.1571
v  -0.0198 0.4207 0.1100
v  0.0044 0.4622 0.1184
v  -0.0119 0.4818 0.1684
v  -0.0205 0.5293 0.1928
v  -0.0051 0.4835 0.2099
v  -0.0568 0.4758 0.1936
v  -0.0701 0.4810 0.2377
v  -0.0361 0.5311 0.2370
v  -0.0216 0.4882 0.2530
v  -0.0564 0.5335 0.2947
v  -0.0433 0.4944 0.3093
v  -0.0874 0.4878 0.2953
v  -0.0674 0.5348 0.3259
v  -0.0549 0.4977 0.3398
v  -0.0969 0.4915 0.3266
v  0.1244 0.5755 0.2639
v  0.1323 0.5520 0.2726
v  0.1414 0.5493 0.2489
v  0.1330 0.5745 0.2396
v  -0.0767 0.5655 0.2343
v  -0.0819 0.5674 0.2515
v  -0.0657 0.5913 0.2511
v  -0.0597 0.5905 0.2340
v  -0.0764 0.5322 0.3823
v  -0.0719 0.5190 0.3872
v  -0.0869 0.5167 0.3825
v  -0.0843 0.4977 0.4045
v  -0.0911 0.4876 0.4046
v  -0.0814 0.4890 0.4077
# 201 vertices

vn 0.4349 0.6253 -0.6480
vn 0.1782 0.7152 -0.6759
vn 0.0278 0.9972 0.0698
vn 0.7344 0.6646 -0.1375
vn -0.5467 0.6470 -0.5316
vn -0.0046 0.9985 0.0543
vn 0.0576 0.9957 0.0724
vn -0.0204 0.6615 -0.7497
vn 0.6115 0.7845 -0.1027
vn -0.0555 0.9984 0.0106
vn -0.0913 0.9933 -0.0714
vn 0.7394 0.6708 0.0577
vn 0.0566 0.9982 0.0212
vn 0.0396 0.9991 -0.0151
vn 0.0069 0.9984 -0.0568
vn 0.0437 0.9976 0.0539
vn 0.4864 -0.4896 -0.7237
vn 0.1615 -0.5437 -0.8236
vn -0.0559 -0.4992 -0.8647
vn -0.5971 -0.4679 -0.6516
vn -0.6425 0.7374 -0.2084
vn -0.7394 0.6450 -0.1933
vn -0.8747 -0.3905 -0.2870
vn -0.8566 -0.4487 -0.2546
vn -0.6389 0.6348 0.4345
vn -0.7428 0.6566 -0.1309
vn -0.8596 -0.4923 -0.1368
vn -0.7513 -0.4712 0.4621
vn -0.2723 -0.4623 0.8439
vn -0.2818 0.6354 0.7190
vn -0.4698 0.6972 0.5415
vn -0.5190 -0.5288 0.6716
vn 0.1501 -0.4927 0.8571
vn 0.1117 0.6524 0.7496
vn -0.0974 0.7744 0.6252
vn -0.0753 -0.5862 0.8067
vn 0.5437 0.7037 0.4573
vn 0.6587 -0.4985 0.5636
vn 0.8737 -0.4778 0.0913
vn 0.8347 -0.5453 -0.0764
vn 0.8504 -0.4940 -0.1812
vn -0.1656 -0.9601 0.2253
vn 0.0075 -0.9805 0.1966
vn 0.2001 -0.9687 0.1466
vn 0.0000 -1.0000 -0.0000
vn -0.2612 -0.9651 -0.0185
vn -0.3545 -0.9211 -0.1613
vn 0.0043 -0.9696 -0.2446
vn 0.2402 -0.9701 -0.0333
vn 0.1633 -0.9678 -0.1918
vn 0.5774 0.5774 -0.5774
vn -0.0000 0.7071 -0.7071
vn 0.0000 1.0000 -0.0000
vn 0.7071 0.7071 -0.0000
vn -0.5774 0.5774 -0.5774
vn -0.7071 0.7071 0.0000
vn 0.0000 0.7071 0.7071
vn 0.5774 0.5774 0.5774
vn -0.5774 0.5774 0.5774
vn -0.0000 -0.0284 -0.9996
vn 0.7066 -0.0367 -0.7066
vn -0.7066 -0.0367 -0.7066
vn -0.9996 -0.0284 0.0000
vn -0.7066 -0.0367 0.7066
vn 0.0000 -0.0284 0.9996
vn 0.7066 -0.0367 0.7066
vn 0.9996 -0.0284 -0.0000
vn 0.6471 -0.4031 -0.6471
vn -0.0000 -0.4232 -0.9060
vn -0.6471 -0.4031 -0.6471
vn -0.9060 -0.4232 0.0000
vn -0.6471 -0.4031 0.6471
vn 0.0000 -0.4232 0.9060
vn 0.6471 -0.4031 0.6471
vn 0.9060 -0.4232 -0.0000
vn -0.0000 0.0000 -1.0000
vn 0.7071 0.0000 -0.7071
vn -0.7071 0.0000 -0.7071
vn -1.0000 0.0000 0.0000
vn -0.7071 0.0000 0.7071
vn 0.0000 0.0000 1.0000
vn 0.7071 0.0000 0.7071
vn 1.0000 0.0000 -0.0000
vn 0.5774 -0.5774 -0.5774
vn -0.0000 -0.7071 -0.7071
vn -0.5774 -0.5774 -0.5774
vn -0.7071 -0.7071 0.0000
vn -0.5774 -0.5774 0.5774
vn 0.0000 -0.7071 0.7071
vn 0.5774 -0.5774 0.5774
vn 0.7071 -0.7071 -0.0000
vn -0.5561 0.0000 0.8311
vn -0.5561 -0.5877 0.5877
vn -0.5561 -0.8311 0.0000
vn -0.5561 -0.5877 -0.5877
vn -0.5561 0.0000 -0.8311
vn -0.5561 0.5877 -0.5877
vn -0.5561 0.8311 0.0000
vn -0.5561 0.5877 0.5877
vn 0.7780 -0.5700 -0.2642
vn -0.7203 -0.6308 0.2886
vn -0.8323 -0.5542 -0.0130
vn 0.6718 -0.4995 -0.5470
vn 0.1857 0.9337 0.3062
vn 0.3333 0.6830 0.6499
vn 0.6549 -0.7557 0.0062
vn -0.1760 0.6516 0.7379
vn -0.9212 -0.3069 0.2390
vn -0.4373 0.8877 -0.1441
vn -0.8227 -0.5380 0.1835
vn 0.4086 -0.7014 -0.5839
vn 0.7996 -0.4811 -0.3594
vn 0.9286 0.3711 0.0023
vn -0.6124 -0.7487 0.2539
vn 0.7424 -0.5241 -0.4173
vn 0.1402 0.8949 -0.4236
vn -0.8060 -0.5495 -0.2200
vn 0.9009 -0.3773 0.2147
vn 0.5332 -0.2034 -0.8212
vn 0.2074 0.8170 -0.5380
vn 0.5535 0.6469 0.5246
vn -0.2834 -0.1778 0.9424
vn 0.3765 0.6129 0.6947
vn -0.0174 0.9709 -0.2387
vn -0.9417 0.3345 0.0370
vn 0.8282 -0.1409 -0.5424
vn 0.0338 0.9256 -0.3770
vn -0.9537 -0.1945 -0.2293
vn 0.5068 -0.6605 -0.5540
vn -0.6836 -0.7171 -0.1361
vn -0.2104 0.5057 -0.8366
vn 0.7780 -0.5700 0.2642
vn 0.6718 -0.4995 0.5470
vn -0.8323 -0.5542 0.0130
vn -0.7203 -0.6308 -0.2886
vn 0.1857 0.9337 -0.3062
vn 0.3333 0.6830 -0.6499
vn -0.1760 0.6516 -0.7379
vn 0.6549 -0.7557 -0.0062
vn -0.9212 -0.3069 -0.2390
vn -0.8227 -0.5380 -0.1835
vn -0.4373 0.8877 0.1441
vn 0.4086 -0.7014 0.5839
vn 0.9286 0.3711 -0.0023
vn 0.7996 -0.4811 0.3594
vn -0.6124 -0.7487 -0.2539
vn 0.1402 0.8949 0.4236
vn 0.7424 -0.5241 0.4173
vn -0.8060 -0.5495 0.2200
vn 0.2074 0.8170 0.5380
vn 0.5332 -0.2034 0.8212
vn 0.9009 -0.3773 -0.2147
vn 0.5535 0.6469 -0.5246
vn -0.2834 -0.1778 -0.9424
vn -0.9417 0.3345 -0.0370
vn -0.0174 0.9709 0.2387
vn 0.3765 0.6129 -0.6947
vn 0.0338 0.9256 0.3770
vn 0.8282 -0.1409 0.5424
vn -0.9537 -0.1945 0.2293
vn -0.2104 0.5057 0.8366
vn -0.6836 -0.7171 0.1361
vn 0.5068 -0.6605 0.5540
# 163 vertex normals

vt 0.3828 0.0906 0.0000
vt 0.5033 0.0684 0.0000
vt 0.5312 0.2037 0.0000
vt 0.3985 0.1662 0.0000
vt 0.6629 0.0998 0.0000
vt 0.6717 0.2464 0.0000
vt 0.5861 0.2090 0.0000
vt 0.5753 0.0634 0.0000
vt 0.4141 0.2244 0.0000
vt 0.5170 0.2819 0.0000
vt 0.4963 0.3437 0.0000
vt 0.4159 0.2786 0.0000
vt 0.6147 0.4193 0.0000
vt 0.4858 0.5442 0.0000
vt 0.5142 0.4234 0.0000
vt 0.5620 0.3368 0.0000
vt 0.3029 0.0777 0.0000
vt 0.4799 0.0132 0.0000
vt 0.5791 0.0019 0.0000
vt 0.6889 0.0446 0.0000
vt 0.1556 0.5841 0.0000
vt 0.0442 0.5178 0.0000
vt 0.0441 0.4383 0.0000
vt 0.1277 0.5098 0.0000
vt 0.3418 0.5648 0.0000
vt 0.2686 0.5753 0.0000
vt 0.2462 0.5378 0.0000
vt 0.3059 0.5339 0.0000
vt 0.3751 0.4713 0.0000
vt 0.4198 0.4914 0.0000
vt 0.4076 0.5216 0.0000
vt 0.3602 0.5010 0.0000
vt 0.3672 0.3847 0.0000
vt 0.4118 0.3860 0.0000
vt 0.4200 0.4364 0.0000
vt 0.3681 0.4280 0.0000
vt 0.4019 0.3372 0.0000
vt 0.3627 0.3286 0.0000
vt 0.3681 0.2649 0.0000
vt 0.3534 0.2171 0.0000
vt 0.3446 0.1521 0.0000
vt 0.2523 0.4345 0.0000
vt 0.2507 0.3738 0.0000
vt 0.2741 0.3199 0.0000
vt 0.2001 0.3275 0.0000
vt 0.1855 0.4229 0.0000
vt 0.1111 0.3932 0.0000
vt 0.1412 0.2818 0.0000
vt 0.2399 0.2716 0.0000
vt 0.1919 0.2344 0.0000
vt 0.0019 0.3324 0.0000
vt 0.0482 0.1906 0.0000
vt 0.1337 0.1282 0.0000
vt 0.7097 0.1550 0.0000
vt 0.7473 0.2314 0.0000
vt 0.3482 0.6441 0.0000
vt 0.7460 0.0990 0.0000
vt 0.1811 0.6483 0.0000
vt 0.6564 0.7176 0.0000
vt 0.6073 0.6944 0.0000
vt 0.6427 0.6433 0.0000
vt 0.6943 0.6782 0.0000
vt 0.5695 0.6564 0.0000
vt 0.5911 0.6083 0.0000
vt 0.6781 0.5921 0.0000
vt 0.7159 0.6301 0.0000
vt 0.6290 0.5690 0.0000
vt 0.5696 0.7393 0.0000
vt 0.6560 0.7658 0.0000
vt 0.5205 0.6565 0.0000
vt 0.5466 0.5702 0.0000
vt 0.6294 0.5207 0.0000
vt 0.7158 0.5473 0.0000
vt 0.7649 0.6300 0.0000
vt 0.7388 0.7163 0.0000
vt 0.6579 0.8075 0.0000
vt 0.5260 0.7745 0.0000
vt 0.4786 0.6585 0.0000
vt 0.5115 0.5266 0.0000
vt 0.6276 0.4790 0.0000
vt 0.7594 0.5120 0.0000
vt 0.8068 0.6280 0.0000
vt 0.7739 0.7599 0.0000
vt 0.4477 0.7031 0.0000
vt 0.4618 0.6615 0.0000
vt 0.5127 0.7589 0.0000
vt 0.4610 0.7608 0.0000
vt 0.2484 0.6981 0.0000
vt 0.2284 0.7538 0.0000
vt 0.1767 0.7557 0.0000
vt 0.2261 0.6635 0.0000
vt 0.4632 0.8511 0.0000
vt 0.4409 0.8165 0.0000
vt 0.2417 0.8115 0.0000
vt 0.2276 0.8531 0.0000
vt 0.3461 0.6458 0.0000
vt 0.4031 0.6924 0.0000
vt 0.2875 0.6972 0.0000
vt 0.2703 0.7605 0.0000
vt 0.2863 0.8222 0.0000
vt 0.3433 0.8688 0.0000
vt 0.4019 0.8174 0.0000
vt 0.4191 0.7541 0.0000
vt 0.3760 0.7094 0.0000
vt 0.3426 0.7006 0.0000
vt 0.3113 0.7201 0.0000
vt 0.3079 0.7634 0.0000
vt 0.3133 0.8052 0.0000
vt 0.3468 0.8140 0.0000
vt 0.3781 0.7945 0.0000
vt 0.3815 0.7512 0.0000
vt 0.3447 0.7573 0.0000
vt 0.7779 0.3830 0.0000
vt 0.7717 0.4098 0.0000
vt 0.7407 0.3810 0.0000
vt 0.7569 0.3583 0.0000
vt 0.7494 0.4228 0.0000
vt 0.7244 0.4036 0.0000
vt 0.7096 0.3522 0.0000
vt 0.7319 0.3391 0.0000
vt 0.7034 0.3790 0.0000
vt 0.7988 0.4406 0.0000
vt 0.8026 0.3825 0.0000
vt 0.7441 0.4461 0.0000
vt 0.7031 0.4219 0.0000
vt 0.6787 0.3794 0.0000
vt 0.6826 0.3213 0.0000
vt 0.7372 0.3158 0.0000
vt 0.7783 0.3400 0.0000
vt 0.8227 0.3614 0.0000
vt 0.8528 0.3679 0.0000
vt 0.7149 0.4639 0.0000
vt 0.7294 0.4933 0.0000
vt 0.6774 0.4405 0.0000
vt 0.6586 0.4006 0.0000
vt 0.6285 0.3940 0.0000
vt 0.7664 0.2980 0.0000
vt 0.7519 0.2686 0.0000
vt 0.8039 0.3214 0.0000
vt 0.8302 0.2931 0.0000
vt 0.6511 0.4688 0.0000
vt 0.8042 0.6094 0.0000
vt 0.8645 0.5320 0.0000
vt 0.8752 0.5417 0.0000
vt 0.8819 0.5231 0.0000
vt 0.8866 0.6393 0.0000
vt 0.8897 0.5412 0.0000
vt 0.9644 0.6051 0.0000
vt 0.8999 0.5311 0.0000
vt 0.9980 0.5279 0.0000
vt 0.9005 0.5168 0.0000
vt 0.9710 0.4485 0.0000
vt 0.8913 0.5059 0.0000
vt 0.8973 0.4079 0.0000
vt 0.8770 0.5040 0.0000
vt 0.8148 0.4282 0.0000
vt 0.8653 0.5124 0.0000
vt 0.7677 0.5021 0.0000
vt 0.8627 0.5267 0.0000
vt 0.9132 0.8963 0.0000
vt 0.8956 0.9225 0.0000
vt 0.8634 0.8980 0.0000
vt 0.8831 0.8732 0.0000
vt 0.7933 0.7096 0.0000
vt 0.7990 0.6728 0.0000
vt 0.8334 0.6857 0.0000
vt 0.8264 0.7268 0.0000
vt 0.8929 0.8491 0.0000
vt 0.9260 0.8712 0.0000
vt 0.8677 0.8362 0.0000
vt 0.8985 0.8431 0.0000
vt 0.8332 0.7570 0.0000
vt 0.8023 0.7450 0.0000
vt 0.8456 0.8640 0.0000
vt 0.8276 0.7873 0.0000
vt 0.8007 0.7650 0.0000
vt 0.8320 0.8490 0.0000
vt 0.8395 0.8177 0.0000
vt 0.7988 0.8273 0.0000
vt 0.7872 0.8005 0.0000
vt 0.7827 0.7732 0.0000
vt 0.8016 0.8573 0.0000
vt 0.7800 0.8339 0.0000
vt 0.7700 0.8141 0.0000
vt 0.7846 0.8545 0.0000
vt 0.9266 0.7639 0.0000
vt 0.9171 0.7578 0.0000
vt 0.9159 0.7464 0.0000
vt 0.9401 0.7631 0.0000
vt 0.9134 0.7321 0.0000
vt 0.7612 0.7733 0.0000
vt 0.7682 0.7804 0.0000
vt 0.7660 0.7855 0.0000
vt 0.7544 0.7824 0.0000
vt 0.8111 0.9129 0.0000
vt 0.8010 0.9091 0.0000
vt 0.7401 0.8133 0.0000
vt 0.7501 0.8483 0.0000
vt 0.7499 0.8408 0.0000
vt 0.7400 0.8400 0.0000
vt 0.7535 0.8566 0.0000
vt 0.7331 0.8611 0.0000
vt 0.7271 0.8571 0.0000
vt 0.7341 0.8558 0.0000
vt 0.7352 0.8668 0.0000
vt 0.7700 0.0103 0.0000
vt 0.7899 0.0445 0.0000
vt 0.7659 0.0566 0.0000
vt 0.7432 0.0256 0.0000
vt 0.7186 0.0526 0.0000
vt 0.7440 0.0825 0.0000
vt 0.7966 0.0026 0.0000
vt 0.8123 0.0401 0.0000
vt 0.8142 0.0383 0.0000
vt 0.8181 0.0692 0.0000
vt 0.7832 0.0863 0.0000
vt 0.7513 0.1072 0.0000
vt 0.8001 0.1104 0.0000
vt 0.7653 0.1208 0.0000
vt 0.8339 0.0989 0.0000
vt 0.8622 0.1434 0.0000
vt 0.8336 0.1405 0.0000
vt 0.8629 0.1109 0.0000
vt 0.8030 0.1495 0.0000
vt 0.7704 0.1439 0.0000
vt 0.8546 0.1601 0.0000
vt 0.8345 0.1602 0.0000
vt 0.8134 0.1628 0.0000
vt 0.9118 0.0283 0.0000
vt 0.9002 0.0264 0.0000
vt 0.8948 0.0163 0.0000
vt 0.8968 0.0030 0.0000
vt 0.9265 0.0318 0.0000
vt 0.8921 0.1169 0.0000
vt 0.7464 0.1769 0.0000
vt 0.7549 0.1824 0.0000
vt 0.7479 0.1980 0.0000
vt 0.7375 0.1946 0.0000
vt 0.7986 0.1910 0.0000
vt 0.9086 0.1508 0.0000
vt 0.8984 0.1569 0.0000
vt 0.7295 0.1724 0.0000
vt 0.8494 0.1924 0.0000
vt 0.8417 0.1950 0.0000
vt 0.8317 0.1959 0.0000
vt 0.8249 0.2014 0.0000
vt 0.8296 0.2100 0.0000
vt 0.8334 0.2116 0.0000
vt 0.8363 0.2141 0.0000
vt 0.8405 0.2119 0.0000
# 250 texture coords

g SnowMan
usemtl defaultMat
s 1
f 1/1/1 2/2/2 3/3/3 4/4/4 
f 5/5/5 6/6/6 7/7/7 8/8/8 
f 9/9/9 10/10/10 11/11/11 12/12/12 
f 13/13/13 14/14/14 15/15/15 16/16/16 
f 2/2/2 1/1/1 17/17/17 18/18/18 
f 5/5/5 8/8/8 19/19/19 20/20/20 
f 21/21/21 22/22/22 23/23/23 24/24/24 
f 25/25/25 26/26/26 27/27/27 28/28/28 
f 29/29/29 30/30/30 31/31/31 32/32/32 
f 33/33/33 34/34/34 35/35/35 36/36/36 
f 12/12/12 37/37/37 38/38/38 39/39/39 
f 4/4/4 9/9/9 40/40/40 41/41/41 
f 36/36/36 29/29/29 42/42/42 43/43/43 
f 38/38/38 33/33/33 44/44/44 39/39/39 
f 45/45/45 46/46/46 47/47/47 48/48/48 
f 49/49/49 50/50/50 41/41/41 40/40/40 
f 11/11/11 34/34/34 37/37/37 12/12/12 
f 14/14/14 30/30/30 35/35/35 15/15/15 
f 28/28/28 32/32/32 31/31/31 25/25/25 
f 39/39/39 40/40/40 9/9/9 12/12/12 
f 43/43/43 42/42/42 46/46/46 45/45/45 
f 44/44/44 49/49/49 40/40/40 39/39/39 
f 4/4/4 3/3/3 10/10/10 9/9/9 
f 6/6/6 13/13/13 16/16/16 7/7/7 
f 26/26/26 21/21/21 24/24/24 27/27/27 
f 1/1/1 4/4/4 41/41/41 17/17/17 
f 48/48/48 47/47/47 20/51/20 19/52/19 
f 50/50/50 18/53/18 17/17/17 41/41/41 
f 2/2/2 8/8/8 7/7/7 3/3/3 
f 10/10/10 16/16/16 15/15/15 11/11/11 
f 19/19/19 8/8/8 2/2/2 18/18/18 
f 37/37/37 34/34/34 33/33/33 38/38/38 
f 36/36/36 43/43/43 44/44/44 33/33/33 
f 45/45/45 48/48/48 50/50/50 49/49/49 
f 11/11/11 15/15/15 35/35/35 34/34/34 
f 43/43/43 45/45/45 49/49/49 44/44/44 
f 3/3/3 7/7/7 16/16/16 10/10/10 
f 48/48/48 19/52/19 18/53/18 50/50/50 
f 22/54/22 21/55/21 6/6/6 5/5/5 
f 26/26/26 25/25/25 14/14/14 13/56/13 
f 20/20/20 23/57/23 22/54/22 5/5/5 
f 35/35/35 30/30/30 29/29/29 36/36/36 
f 32/32/32 28/28/28 42/42/42 29/29/29 
f 46/46/46 27/27/27 24/24/24 47/47/47 
f 14/14/14 25/25/25 31/31/31 30/30/30 
f 42/42/42 28/28/28 27/27/27 46/46/46 
f 21/21/21 26/26/26 13/56/13 6/58/6 
f 47/47/47 24/24/24 23/23/23 20/51/20 
f 51/59/51 52/60/52 53/61/53 54/62/54 
f 55/63/55 56/64/56 53/61/53 52/60/52 
f 53/61/53 57/65/57 58/66/58 54/62/54 
f 53/61/53 56/64/56 59/67/59 57/65/57 
f 60/68/60 52/60/52 51/59/51 61/69/61 
f 60/68/60 62/70/62 55/63/55 52/60/52 
f 63/71/63 56/64/56 55/63/55 62/70/62 
f 63/71/63 64/72/64 59/67/59 56/64/56 
f 65/73/65 57/65/57 59/67/59 64/72/64 
f 65/73/65 66/74/66 58/66/58 57/65/57 
f 67/75/67 54/62/54 58/66/58 66/74/66 
f 67/75/67 61/69/61 51/59/51 54/62/54 
f 68/76/68 69/77/69 60/68/60 61/69/61 
f 70/78/70 62/70/62 60/68/60 69/77/69 
f 70/78/70 71/79/71 63/71/63 62/70/62 
f 72/80/72 64/72/64 63/71/63 71/79/71 
f 72/80/72 73/81/73 65/73/65 64/72/64 
f 74/82/74 66/74/66 65/73/65 73/81/73 
f 74/82/74 75/83/75 67/75/67 66/74/66 
f 68/76/68 61/69/61 67/75/67 75/83/75 
f 76/84/51 77/85/52 78/86/53 79/87/54 
f 80/88/55 81/89/56 78/90/53 77/91/52 
f 78/86/53 82/92/57 83/93/58 79/87/54 
f 78/90/53 81/89/56 84/94/59 82/95/57 
f 85/96/76 77/85/52 76/84/51 86/97/77 
f 85/96/76 87/98/78 80/88/55 77/91/52 
f 88/99/79 81/89/56 80/88/55 87/98/78 
f 88/99/79 89/100/80 84/94/59 81/89/56 
f 90/101/81 82/95/57 84/94/59 89/100/80 
f 90/101/81 91/102/82 83/93/58 82/92/57 
f 92/103/83 79/87/54 83/93/58 91/102/82 
f 92/103/83 86/97/77 76/84/51 79/87/54 
f 93/104/84 94/105/85 85/96/76 86/97/77 
f 95/106/86 87/98/78 85/96/76 94/105/85 
f 95/106/86 96/107/87 88/99/79 87/98/78 
f 97/108/88 89/100/80 88/99/79 96/107/87 
f 97/108/88 98/109/89 90/101/81 89/100/80 
f 99/110/90 91/102/82 90/101/81 98/109/89 
f 99/110/90 100/111/91 92/103/83 91/102/82 
f 93/104/84 86/97/77 92/103/83 100/111/91 
f 101/112/45 94/105/85 93/104/84 100/111/91 
f 101/112/45 96/107/87 95/106/86 94/105/85 
f 99/110/90 98/109/89 101/112/45 100/111/91 
f 97/108/88 96/107/87 101/112/45 98/109/89 
f 102/113/51 103/114/52 104/115/53 105/116/54 
f 106/117/55 107/118/56 104/115/53 103/114/52 
f 104/115/53 108/119/57 109/120/58 105/116/54 
f 104/115/53 107/118/56 110/121/59 108/119/57 
f 111/122/76 103/114/52 102/113/51 112/123/77 
f 111/122/76 113/124/78 106/117/55 103/114/52 
f 114/125/79 107/118/56 106/117/55 113/124/78 
f 114/125/79 115/126/80 110/121/59 107/118/56 
f 116/127/81 108/119/57 110/121/59 115/126/80 
f 116/127/81 117/128/82 109/120/58 108/119/57 
f 118/129/83 105/116/54 109/120/58 117/128/82 
f 118/129/83 112/123/77 102/113/51 105/116/54 
f 119/130/84 120/131/85 111/122/76 112/123/77 
f 121/132/86 113/124/78 111/122/76 120/133/85 
f 121/132/86 122/134/87 114/125/79 113/124/78 
f 123/135/88 115/126/80 114/125/79 122/134/87 
f 123/135/88 124/136/89 116/127/81 115/126/80 
f 125/137/90 117/128/82 116/127/81 124/138/89 
f 125/137/90 126/139/91 118/129/83 117/128/82 
f 119/130/84 112/123/77 118/129/83 126/139/91 
f 127/140/45 120/131/85 119/130/84 126/139/91 
f 127/141/45 122/134/87 121/132/86 120/133/85 
f 125/137/90 124/138/89 127/140/45 126/139/91 
f 123/135/88 122/134/87 127/141/45 124/136/89 
f 128/142/83 129/143/92 130/144/93 
f 129/143/92 131/145/79 130/144/93 
f 128/146/83 130/144/93 132/147/94 
f 128/148/83 132/147/94 133/149/95 
f 130/144/93 131/145/79 132/147/94 
f 128/150/83 133/149/95 134/151/96 
f 128/152/83 134/151/96 135/153/97 
f 132/147/94 131/145/79 133/149/95 
f 128/154/83 135/153/97 136/155/98 
f 128/156/83 136/155/98 137/157/99 
f 133/149/95 131/145/79 134/151/96 
f 128/158/83 137/157/99 129/159/92 
f 137/157/99 131/145/79 129/159/92 
f 136/155/98 131/145/79 137/157/99 
f 135/153/97 131/145/79 136/155/98 
f 134/151/96 131/145/79 135/153/97 
f 138/160/100 139/161/101 140/162/102 141/163/103 
f 140/164/102 139/165/101 142/166/104 143/167/105 
f 141/163/103 143/168/105 142/169/104 138/160/100 
f 143/168/105 141/163/103 144/170/106 145/171/107 
f 143/167/105 145/172/107 146/173/108 140/164/102 
f 141/163/103 140/162/102 146/174/108 144/170/106 
f 146/173/108 145/172/107 147/175/109 148/176/110 
f 146/174/108 148/177/110 149/178/111 144/170/106 
f 149/178/111 150/179/112 151/180/113 147/175/109 
f 148/176/110 147/175/109 151/180/113 152/181/114 
f 148/177/110 152/182/114 150/179/112 149/178/111 
f 150/179/112 153/183/115 154/184/116 151/180/113 
f 152/182/114 155/185/117 153/183/115 150/179/112 
f 156/186/118 157/187/119 158/188/120 159/189/121 
f 145/172/107 159/190/121 158/188/120 147/175/109 
f 149/178/111 147/175/109 158/188/120 157/187/119 
f 144/170/106 149/178/111 157/187/119 156/186/118 
f 144/170/106 156/186/118 159/189/121 145/171/107 
f 160/191/122 161/192/123 162/193/124 163/194/125 
f 152/182/114 160/195/122 163/196/125 155/185/117 
f 154/184/116 155/197/117 163/194/125 162/193/124 
f 151/180/113 154/184/116 162/193/124 161/192/123 
f 151/180/113 161/192/123 160/191/122 152/181/114 
f 153/183/115 164/198/126 165/199/127 154/184/116 
f 154/184/116 165/199/127 166/200/128 155/197/117 
f 153/183/115 155/185/117 166/201/128 164/198/126 
f 167/202/129 168/203/130 169/204/131 
f 164/198/126 167/202/129 169/204/131 165/199/127 
f 166/200/128 165/199/127 169/204/131 168/203/130 
f 166/201/128 168/205/130 167/202/129 164/198/126 
f 170/206/132 171/207/133 172/208/134 173/209/135 
f 174/210/136 173/209/135 172/208/134 175/211/137 
f 174/212/136 175/213/137 171/207/133 170/206/132 
f 175/213/137 176/214/138 177/215/139 171/207/133 
f 178/216/140 176/217/138 175/211/137 172/208/134 
f 171/207/133 177/215/139 178/216/140 172/208/134 
f 178/216/140 179/218/141 180/219/142 176/217/138 
f 181/220/143 179/218/141 178/216/140 177/215/139 
f 182/221/144 183/222/145 181/220/143 180/223/142 
f 179/218/141 184/224/146 182/225/144 180/219/142 
f 183/222/145 184/224/146 179/218/141 181/220/143 
f 185/226/147 186/227/148 183/222/145 182/221/144 
f 186/227/148 187/228/149 184/224/146 183/222/145 
f 188/229/150 189/230/151 190/231/152 191/232/153 
f 188/229/150 191/233/153 176/234/138 180/223/142 
f 181/220/143 189/230/151 188/229/150 180/223/142 
f 177/215/139 190/231/152 189/230/151 181/220/143 
f 191/232/153 190/231/152 177/215/139 176/214/138 
f 192/235/154 193/236/155 194/237/156 195/238/157 
f 193/236/155 192/235/154 184/224/146 187/228/149 
f 185/239/147 194/237/156 193/236/155 187/228/149 
f 182/221/144 195/240/157 194/241/156 185/226/147 
f 192/235/154 195/242/157 182/225/144 184/224/146 
f 196/243/158 197/244/159 186/227/148 185/226/147 
f 198/245/160 196/246/158 185/239/147 187/228/149 
f 186/227/148 197/244/159 198/245/160 187/228/149 
f 199/247/161 200/248/162 201/249/163 
f 199/250/161 201/249/163 197/244/159 196/243/158 
f 198/245/160 200/248/162 199/247/161 196/246/158 
f 201/249/163 200/248/162 198/245/160 197/244/159 
# 174 polygons - 18 triangles

